<svg width="300" height="300" viewBox="0 0 300 300" fill="none" xmlns="http://www.w3.org/2000/svg">
<rect width="300" height="300" fill="#262626"/>
<path d="M156.371 95.3352C153.073 85.6521 147.843 76.753 136.994 72.0399C128.205 68.2216 123.097 67.0346 112.475 71.153C100.682 75.7257 89.4044 83.917 84.6055 98.3549C77.4062 120.014 100.879 142.018 109.388 151.282C117.898 160.546 165.589 210.554 179.565 214.43C193.541 218.307 224.43 214.249 229.343 211.293C234.256 208.336 185.225 175.043 175.807 161.421C166.388 147.799 159.67 105.018 156.371 95.3352Z" fill="#E30B00"/>
<path d="M81.9766 107.046C84.926 107.833 93.9708 83.6262 97.3135 83.0358C100.656 82.4454 110.094 86.3815 113.83 85.9879C117.566 85.5943 118.746 73.9826 122.482 73.9826C126.218 73.9826 146.863 78.9028 150.599 78.9028C154.335 78.9028 122.482 61.387 117.566 60.403C112.65 59.4189 97.3135 65.5199 92.0045 64.5359C86.6956 63.5519 73.5217 49.3818 70.5723 51.153C67.6229 52.9243 76.9202 64.7303 79.2238 73.9826C82.354 86.555 79.0272 106.259 81.9766 107.046Z" fill="#57BB19"/>
</svg>
